<?xml version="1.0" encoding="UTF-8"?>
<svg width="80" height="80" viewBox="0 0 24 24" xmlns="http://www.w3.org/2000/svg">
<path d="m8.75 2.75c0-0.41421-0.33579-0.75-0.75-0.75s-0.75 0.33579-0.75 0.75v1h-1.75c-1.2426 0-2.25 1.0074-2.25 2.25v2.25h17.5v-2.25c0-1.2426-1.0074-2.25-2.25-2.25h-1.75v-1c0-0.41421-0.3358-0.75-0.75-0.75s-0.75 0.33579-0.75 0.75v1h-6.5v-1z" fill="#f00"/>
<path d="m3.25 19v-9.25h17.5v9.25c0 1.2426-1.0074 2.25-2.25 2.25h-13c-1.2426 0-2.25-1.0074-2.25-2.25zm4.7344-7.05c-0.44183 0-0.8 0.3582-0.8 0.8s0.35817 0.8 0.8 0.8h0.01c0.44182 0 0.79999-0.3582 0.79999-0.8s-0.35817-0.8-0.79999-0.8h-0.01zm4.0097 0c-0.4418 0-0.8 0.3582-0.8 0.8s0.3582 0.8 0.8 0.8h0.01c0.4419 0 0.8-0.3582 0.8-0.8s-0.3581-0.8-0.8-0.8h-0.01zm4.0098 0c-0.4418 0-0.8 0.3582-0.8 0.8s0.3582 0.8 0.8 0.8h0.01c0.4418 0 0.8-0.3582 0.8-0.8s-0.3582-0.8-0.8-0.8h-0.01zm-8.0195 4c-0.44183 0-0.8 0.3582-0.8 0.8s0.35817 0.8 0.8 0.8h0.01c0.44182 0 0.79999-0.3582 0.79999-0.8s-0.35817-0.8-0.79999-0.8h-0.01zm4.0097 0c-0.4418 0-0.8 0.3582-0.8 0.8s0.3582 0.8 0.8 0.8h0.01c0.4419 0 0.8-0.3582 0.8-0.8s-0.3581-0.8-0.8-0.8h-0.01zm4.0098 0c-0.4418 0-0.8 0.3582-0.8 0.8s0.3582 0.8 0.8 0.8h0.01c0.4418 0 0.8-0.3582 0.8-0.8s-0.3582-0.8-0.8-0.8h-0.01z" fill="#f00"/>
</svg>
