<?xml version="1.0" encoding="UTF-8"?>
<svg class="icon" version="1.1" viewBox="0 0 1024 1024" xmlns="http://www.w3.org/2000/svg">
<path d="m512 128c-211.2 0-384 172.8-384 384s172.8 384 384 384 384-172.8 384-384-172.8-384-384-384zm0 85.333c66.133 0 128 23.467 179.2 59.733l-418.13 418.13c-36.267-51.2-59.733-113.07-59.733-179.2 0-164.27 134.4-298.67 298.67-298.67zm0 597.33c-66.133 0-128-23.467-179.2-59.733l418.13-418.13c36.267 51.2 59.733 113.07 59.733 179.2 0 164.27-134.4 298.67-298.67 298.67z" fill="red"/>
</svg>